<?xml version="1.0" encoding="UTF-8"?>
<svg version="1.1" xmlns="http://www.w3.org/2000/svg" width="500" height="500">
<path d="M0 0 C1.13600328 0.82326281 2.26739145 1.65292445 3.39453125 2.48828125 C3.96494141 2.90505127 4.53535156 3.32182129 5.12304688 3.7512207 C6.72911371 4.93836403 8.31255622 6.15593686 9.89453125 7.375 C13.79215276 9.41451012 15.8130977 9.15710754 20 8 C24.00784288 2.84705915 24.68543493 -4.71619248 26 -11 C28.31 -11 30.62 -11 33 -11 C33.26603194 0.20852023 33.52704221 11.41714646 33.78230286 22.62591743 C33.90108152 27.83530374 34.02134612 33.04464524 34.14550781 38.25390625 C34.77792638 64.84105675 35.15467538 91.40505541 35 118 C32.69 118 30.38 118 28 118 C27.84966309 116.83150513 27.84966309 116.83150513 27.69628906 115.6394043 C21.63164876 64.28315455 21.63164876 64.28315455 -6.765625 22.62109375 C-15.29581465 16.15196947 -24.32854494 10.93584134 -35.35546875 12.2890625 C-44.15463333 14.02826086 -50.55949807 17.82057129 -56 25 C-59.20402352 30.41423965 -61.67381396 36.16532786 -64 42 C-64.38542969 42.96550781 -64.77085937 43.93101563 -65.16796875 44.92578125 C-70.80633431 62.79384112 -67.56520735 83.61834173 -59.8125 100.1875 C-56.19807272 107.00371381 -51.90986246 113.06581681 -47 119 C-46.52288574 119.57862793 -46.04577148 120.15725586 -45.55419922 120.75341797 C-34.85137477 133.62624264 -23.27137186 145.96346911 -10.1875 156.453125 C-8.76296256 157.60066905 -7.37665271 158.79542888 -6 160 C-6 160.66 -6 161.32 -6 162 C-5.42419189 162.25056152 -4.84838379 162.50112305 -4.25512695 162.75927734 C-1.69361407 164.16856699 0.0218495 165.77908763 2.08203125 167.8515625 C2.84966797 168.62113281 3.61730469 169.39070312 4.40820312 170.18359375 C5.20162109 170.98925781 5.99503906 171.79492188 6.8125 172.625 C7.59431641 173.40746094 8.37613281 174.18992188 9.18164062 174.99609375 C35.61676188 201.62997532 51.87684889 232.76402947 53 271 C53.02046387 271.64437012 53.04092773 272.28874023 53.06201172 272.95263672 C53.95959939 305.42157273 47.09349308 338.22307424 25.5625 363.4375 C16.69265787 372.79925712 5.52110181 379.34427647 -7.57730103 380.16062927 C-8.49232391 380.17650589 -9.4073468 380.19238251 -10.35009766 380.20874023 C-11.395336 380.22803085 -12.44057434 380.24732147 -13.51748657 380.26719666 C-18.29303087 380.32540047 -23.06843303 380.37421966 -27.84423828 380.4050293 C-30.35414407 380.42658538 -32.86397518 380.46065917 -35.37353516 380.50756836 C-39.01238215 380.57488344 -42.64967898 380.60208207 -46.2890625 380.62109375 C-47.39778717 380.64892441 -48.50651184 380.67675507 -49.64883423 380.70542908 C-61.29404016 380.67506715 -69.13746503 375.02314092 -78 368 C-78.33 371.96 -78.66 375.92 -79 380 C-81.31 380 -83.62 380 -86 380 C-85.98259766 379.09459473 -85.98259766 379.09459473 -85.96484375 378.17089844 C-85.69890015 362.40544659 -85.69890015 362.40544659 -92.87109375 348.77734375 C-109.55592261 327.01053032 -110.80298525 291.35706819 -114 265 C-115.65 264.67 -117.3 264.34 -119 264 C-119 302.28 -119 340.56 -119 380 C-179.06 380 -239.12 380 -301 380 C-301 252.62 -301 125.24 -301 -6 C-233.02 -6 -165.04 -6 -95 -6 C-99 1 -99 1 -100.9296875 4.25390625 C-121.91048835 39.93811974 -125.96503094 81.66167169 -116.3125 121.6875 C-109.99500155 143.48528091 -98.97370315 162.71804694 -83.43359375 179.2578125 C-82 181 -82 181 -82 183 C-81.34 183 -80.68 183 -80 183 C-78.62280273 184.39624023 -78.62280273 184.39624023 -76.99609375 186.37109375 C-72.60657951 191.5306185 -67.86110746 196.28549167 -63.0625 201.0625 C-62.20720703 201.92166016 -61.35191406 202.78082031 -60.47070312 203.66601562 C-59.62572266 204.50970703 -58.78074219 205.35339844 -57.91015625 206.22265625 C-56.78299194 207.34812866 -56.78299194 207.34812866 -55.63305664 208.49633789 C-53.51433426 210.51094132 -51.36622002 212.43641264 -49.1574707 214.34912109 C-45.15484187 217.82839514 -41.34179823 221.46433261 -37.5703125 225.19140625 C-36.89507538 225.85857162 -36.21983826 226.525737 -35.5241394 227.21311951 C-34.10594843 228.61758328 -32.68922713 230.02353254 -31.27392578 231.4309082 C-29.84937234 232.8439707 -28.4203722 234.25256539 -26.98681641 235.65649414 C-7.99163335 254.2607669 9.78644506 276.25447842 10.29199219 304.05957031 C10.39950829 320.45833563 7.66981659 334.61911458 2 350 C2.33 350.33 2.66 350.66 3 351 C13.4111463 343.95716574 19.10411083 329.86154448 21.875 318.0625 C26.2710938 292.52830246 21.46142553 267.58089655 7 246 C-2.27486567 233.4990941 -14.64757123 219.47620163 -27.28735352 210.34814453 C-28.13511353 209.68081299 -28.13511353 209.68081299 -29 209 C-29 208.34 -29 207.68 -29 207 C-29.66 207 -30.32 207 -31 207 C-31 206.34 -31 205.68 -31 205 C-31.87047974 204.61739014 -31.87047974 204.61739014 -32.75854492 204.22705078 C-35.23265718 202.87263534 -36.87721002 201.36587734 -38.86328125 199.3671875 C-39.94706055 198.28050781 -39.94706055 198.28050781 -41.05273438 197.171875 C-42.17131836 196.03492188 -42.17131836 196.03492188 -43.3125 194.875 C-44.41368164 193.77285156 -44.41368164 193.77285156 -45.53710938 192.6484375 C-50.22316069 187.9249643 -54.67285542 183.05251977 -59 178 C-60.26457031 176.55753906 -60.26457031 176.55753906 -61.5546875 175.0859375 C-87.3600622 144.93622363 -96.06144831 109.21531961 -94 70 C-91.99752532 44.45875841 -83.02398497 17.79434505 -64.125 -0.21875 C-44.53950029 -16.63600711 -20.20254091 -13.373513 0 0 Z " fill="#68C100" transform="translate(372,30)"/>
<path d="M0 0 C1.13600328 0.82326281 2.26739145 1.65292445 3.39453125 2.48828125 C3.96494141 2.90505127 4.53535156 3.32182129 5.12304688 3.7512207 C6.72911371 4.93836403 8.31255622 6.15593686 9.89453125 7.375 C13.79215276 9.41451012 15.8130977 9.15710754 20 8 C24.00784288 2.84705915 24.68543493 -4.71619248 26 -11 C28.31 -11 30.62 -11 33 -11 C33.26603194 0.20852023 33.52704221 11.41714646 33.78230286 22.62591743 C33.90108152 27.83530374 34.02134612 33.04464524 34.14550781 38.25390625 C34.77792638 64.84105675 35.15467538 91.40505541 35 118 C32.69 118 30.38 118 28 118 C27.89977539 117.22100342 27.79955078 116.44200684 27.69628906 115.6394043 C21.63164876 64.28315455 21.63164876 64.28315455 -6.765625 22.62109375 C-15.29581465 16.15196947 -24.32854494 10.93584134 -35.35546875 12.2890625 C-44.15463333 14.02826086 -50.55949807 17.82057129 -56 25 C-59.20402352 30.41423965 -61.67381396 36.16532786 -64 42 C-64.38542969 42.96550781 -64.77085937 43.93101563 -65.16796875 44.92578125 C-70.80633431 62.79384112 -67.56520735 83.61834173 -59.8125 100.1875 C-56.19807272 107.00371381 -51.90986246 113.06581681 -47 119 C-46.52288574 119.57862793 -46.04577148 120.15725586 -45.55419922 120.75341797 C-34.85137477 133.62624264 -23.27137186 145.96346911 -10.1875 156.453125 C-8.76296256 157.60066905 -7.37665271 158.79542888 -6 160 C-6 160.66 -6 161.32 -6 162 C-5.42419189 162.25056152 -4.84838379 162.50112305 -4.25512695 162.75927734 C-1.69361407 164.16856699 0.0218495 165.77908763 2.08203125 167.8515625 C2.84966797 168.62113281 3.61730469 169.39070312 4.40820312 170.18359375 C5.20162109 170.98925781 5.99503906 171.79492188 6.8125 172.625 C7.59431641 173.40746094 8.37613281 174.18992188 9.18164062 174.99609375 C35.61676188 201.62997532 51.87684889 232.76402947 53 271 C53.02046387 271.64437012 53.04092773 272.28874023 53.06201172 272.95263672 C53.95959939 305.42157273 47.09349308 338.22307424 25.5625 363.4375 C16.69265787 372.79925712 5.52110181 379.34427647 -7.57730103 380.16062927 C-8.49232391 380.17650589 -9.4073468 380.19238251 -10.35009766 380.20874023 C-11.91795517 380.23767616 -11.91795517 380.23767616 -13.51748657 380.26719666 C-18.29303087 380.32540047 -23.06843303 380.37421966 -27.84423828 380.4050293 C-30.35414407 380.42658538 -32.86397518 380.46065917 -35.37353516 380.50756836 C-39.01238215 380.57488344 -42.64967898 380.60208207 -46.2890625 380.62109375 C-47.39778717 380.64892441 -48.50651184 380.67675507 -49.64883423 380.70542908 C-61.29404016 380.67506715 -69.13746503 375.02314092 -78 368 C-78.33 371.96 -78.66 375.92 -79 380 C-81.31 380 -83.62 380 -86 380 C-86.26254082 365.67337693 -86.52337579 351.34672365 -86.78230286 337.02003479 C-86.90260653 330.36620682 -87.02343676 323.7123896 -87.14550781 317.05859375 C-87.26349043 310.62655868 -87.38004096 304.19449906 -87.49563599 297.76242065 C-87.53978419 295.31947927 -87.58443162 292.87654685 -87.62960815 290.43362427 C-87.86621781 277.62107358 -88.07628727 264.81504985 -88 252 C-86.02 252 -84.04 252 -82 252 C-81.84442627 252.99104736 -81.68885254 253.98209473 -81.52856445 255.00317383 C-77.66525857 281.31295555 -77.66525857 281.31295555 -71 307 C-70.78408203 307.65613281 -70.56816406 308.31226563 -70.34570312 308.98828125 C-63.52108378 329.04672766 -51.68272418 343.72954656 -33.53515625 354.45703125 C-25.41843814 358.38358035 -14.86147774 358.44908755 -6.1875 356.3046875 C-3.94469429 355.37797264 -2.02816636 354.32865592 0 353 C0.69351563 352.57589844 1.38703125 352.15179688 2.1015625 351.71484375 C13.0483016 344.35551915 18.94990236 330.51819747 21.875 318.0625 C26.2710938 292.52830246 21.46142553 267.58089655 7 246 C-2.27486567 233.4990941 -14.64757123 219.47620163 -27.28735352 210.34814453 C-27.85252686 209.90325684 -28.4177002 209.45836914 -29 209 C-29 208.34 -29 207.68 -29 207 C-29.66 207 -30.32 207 -31 207 C-31 206.34 -31 205.68 -31 205 C-31.58031982 204.74492676 -32.16063965 204.48985352 -32.75854492 204.22705078 C-35.23265718 202.87263534 -36.87721002 201.36587734 -38.86328125 199.3671875 C-39.58580078 198.64273438 -40.30832031 197.91828125 -41.05273438 197.171875 C-42.17131836 196.03492188 -42.17131836 196.03492188 -43.3125 194.875 C-44.41368164 193.77285156 -44.41368164 193.77285156 -45.53710938 192.6484375 C-50.22316069 187.9249643 -54.67285542 183.05251977 -59 178 C-60.26457031 176.55753906 -60.26457031 176.55753906 -61.5546875 175.0859375 C-87.3600622 144.93622363 -96.06144831 109.21531961 -94 70 C-91.99752532 44.45875841 -83.02398497 17.79434505 -64.125 -0.21875 C-44.53950029 -16.63600711 -20.20254091 -13.373513 0 0 Z " fill="#151615" transform="translate(372,30)"/>
<path d="M0 0 C2.29866059 2.14605242 4.20093944 4.42487409 6 7 C4.47427344 10.32635882 3.06655496 11.95563002 0 14 C-0.61875 12.6078125 -0.61875 12.6078125 -1.25 11.1875 C-3.56104487 6.97809685 -5.49701732 5.50099423 -10 4 C-16.24103828 3.47109845 -20.8350646 4.28949209 -26 8 C-30.15633753 12.64763038 -30.94010287 18.31033688 -31.0390625 24.40625 C-30.64760319 29.84939851 -29.31103504 33.64337495 -26 38 C-20.36545304 41.56471338 -14.55341656 41.76982905 -8 41 C-4.54653852 39.65253476 -4.54653852 39.65253476 -2 38 C-1.34 38 -0.68 38 0 38 C0 35.03 0 32.06 0 29 C-4.62 29 -9.24 29 -14 29 C-14 26.69 -14 24.38 -14 22 C-6.74 22 0.52 22 8 22 C9.07224037 39.39412149 9.07224037 39.39412149 6.3125 43.52734375 C3.90644361 45.16897598 1.77729628 46.13209491 -1 47 C-1.7425 47.25394531 -2.485 47.50789063 -3.25 47.76953125 C-11.60855568 50.08306005 -19.79685274 49.86873049 -27.73828125 46.328125 C-33.57402259 42.9012648 -37.10676283 37.41597042 -39 31 C-40.00545865 21.26660168 -39.0809149 11.29627274 -32.75 3.5 C-24.47406741 -4.8789525 -10.24972857 -5.96871744 0 0 Z " fill="#151616" transform="translate(278,439)"/>
<path d="M0 0 C2.90822059 2.44376275 4.11088395 4.82340797 5.58984375 8.3359375 C5.83984375 11.2734375 5.83984375 11.2734375 5.58984375 13.3359375 C3.27984375 13.3359375 0.96984375 13.3359375 -1.41015625 13.3359375 C-1.80203125 12.4078125 -2.19390625 11.4796875 -2.59765625 10.5234375 C-4.65242999 6.90986989 -5.51698389 5.74410622 -9.41015625 4.3359375 C-14.15904081 4.15091602 -18.07305526 4.46526709 -22.09765625 7.0859375 C-23.63987522 9.26358673 -23.63987522 9.26358673 -23.30078125 11.84375 C-22.65116464 14.50463795 -22.65116464 14.50463795 -20.2578125 15.59375 C-18.87916016 16.02300781 -18.87916016 16.02300781 -17.47265625 16.4609375 C-16.48007812 16.78320312 -15.4875 17.10546875 -14.46484375 17.4375 C-12.53551105 18.0049508 -10.60350389 18.56345483 -8.66796875 19.109375 C-2.15426664 20.95063426 2.87964587 22.46721848 6.52734375 28.5859375 C7.76535605 32.95539266 7.9941996 36.01754327 6.58984375 40.3359375 C3.61086723 45.26986735 0.71937144 47.33074382 -4.82421875 48.859375 C-12.92239222 50.35178763 -20.05449598 50.13072222 -27.33984375 46.03125 C-30.83059296 43.17278744 -32.37180691 39.66755898 -33.41015625 35.3359375 C-33.41015625 34.0159375 -33.41015625 32.6959375 -33.41015625 31.3359375 C-30.22265625 30.8359375 -30.22265625 30.8359375 -26.41015625 31.3359375 C-24.80533917 33.2460187 -23.74985514 35.15574848 -22.6484375 37.390625 C-21.12363249 39.78606 -20.08033261 40.40945282 -17.41015625 41.3359375 C-12.46675349 41.90321323 -7.89976888 41.9615748 -3.28515625 40.0234375 C-1.15135613 38.38221302 -1.15135613 38.38221302 -0.41015625 35.3359375 C-0.94030429 32.70790156 -0.94030429 32.70790156 -2.41015625 30.3359375 C-4.60254042 29.00700447 -4.60254042 29.00700447 -7.28515625 28.2734375 C-8.7546875 27.79003906 -8.7546875 27.79003906 -10.25390625 27.296875 C-12.37714689 26.65044282 -14.5021937 26.00991661 -16.62890625 25.375 C-27.37143244 22.05119858 -27.37143244 22.05119858 -30.41015625 17.3359375 C-31.71018223 12.86451056 -31.78609618 9.44287173 -30.28515625 5.0234375 C-23.70122766 -4.41352681 -9.74207203 -5.80816979 0 0 Z " fill="#151616" transform="translate(418.41015625,438.6640625)"/>
<path d="M0 0 C3.82539733 2.73583509 5.11415049 5.40869542 6.4375 9.875 C6.4375 10.865 6.4375 11.855 6.4375 12.875 C4.1275 13.205 1.8175 13.535 -0.5625 13.875 C-0.954375 12.946875 -1.34625 12.01875 -1.75 11.0625 C-3.77284461 7.50508361 -4.79487001 6.38205199 -8.5625 4.875 C-13.32338867 4.26661058 -17.22156455 4.70453227 -21.5625 6.875 C-21.8925 9.185 -22.2225 11.495 -22.5625 13.875 C-17.43916469 16.36385539 -12.35113942 18.29244595 -6.875 19.875 C3.72381964 23.04474045 3.72381964 23.04474045 6.55859375 27.7265625 C8.06655203 31.41268274 7.99400796 34.96587092 7.4375 38.875 C5.41346823 42.77848985 3.30275693 45.72763504 -0.5625 47.875 C-9.30836403 50.64452361 -17.17930642 50.90661218 -25.5625 46.875 C-28.70156326 44.27024538 -31.25814309 41.78807073 -32.5625 37.875 C-32.6875 34.625 -32.6875 34.625 -32.5625 31.875 C-29.0975 31.38 -29.0975 31.38 -25.5625 30.875 C-24.94375 32.5146875 -24.94375 32.5146875 -24.3125 34.1875 C-22.93799449 37.3968407 -21.67649711 39.12337663 -18.5625 40.875 C-13.52296283 42.55484572 -8.57923771 42.58926127 -3.5625 40.8125 C-0.74479446 38.08284776 -0.77863356 35.69335954 -0.5625 31.875 C-4.83022128 27.89563827 -10.33362113 27.18941845 -15.83203125 25.85742188 C-21.36793014 24.43429978 -26.48746852 22.8556088 -29.9140625 17.93359375 C-31.17187134 13.94042954 -31.09829903 10.00065256 -30.5625 5.875 C-27.86916203 1.00627367 -23.94713734 -1.04018034 -18.734375 -2.7109375 C-12.50318056 -3.89889903 -5.53827194 -3.12362647 0 0 Z " fill="#151616" transform="translate(100.5625,438.125)"/>
<path d="M0 0 C3.95678158 2.38595627 5.57343123 5.23383953 7.375 9.4375 C7.375 10.7575 7.375 12.0775 7.375 13.4375 C5.065 13.7675 2.755 14.0975 0.375 14.4375 C-0.016875 13.509375 -0.40875 12.58125 -0.8125 11.625 C-2.88635047 7.97788365 -3.68204494 6.83396325 -7.625 5.4375 C-14.42018454 5.20483321 -14.42018454 5.20483321 -20.44921875 7.8046875 C-21.8968295 9.50934387 -21.8968295 9.50934387 -21.8125 12.4375 C-20.88461303 15.74770888 -20.88461303 15.74770888 -17.4375 17.0625 C-15.84385719 17.55618283 -14.23722288 18.0083642 -12.625 18.4375 C-10.22756348 19.07735637 -7.83182645 19.72360236 -5.4375 20.375 C-4.26832031 20.67277344 -3.09914062 20.97054688 -1.89453125 21.27734375 C2.35667997 22.78583805 5.31038148 24.58554302 7.58984375 28.55078125 C9.32170262 33.82124904 9.79731287 37.18915546 7.375 42.4375 C3.64207581 47.41473225 -0.69227215 49.22270334 -6.625 50.4375 C-14.16309986 51.28932862 -20.80494067 50.32835571 -26.9375 45.6875 C-30.10149946 41.46883406 -31.625 37.70724717 -31.625 32.4375 C-28.4375 31.9375 -28.4375 31.9375 -24.625 32.4375 C-23.05558117 34.35227841 -21.9760527 36.35608254 -20.78515625 38.5234375 C-19.70351327 40.60458006 -19.70351327 40.60458006 -17.4375 41.9375 C-11.72940558 42.95227234 -5.70227763 43.64896291 -0.625 40.4375 C0.78941874 37.60866253 0.69400332 35.56373255 0.375 32.4375 C-3.50727129 28.34872492 -9.51923219 27.77697904 -14.80664062 26.59570312 C-20.52714278 25.16677234 -24.72175944 22.95370037 -28.625 18.4375 C-30.11642111 13.96323668 -30.36770548 10.11835977 -28.4375 5.75 C-21.76297525 -2.76577296 -9.82029372 -4.34394845 0 0 Z " fill="#151616" transform="translate(145.625,437.5625)"/>
<path d="M0 0 C2.31 0 4.62 0 7 0 C7 6.93 7 13.86 7 21 C15.25 21 23.5 21 32 21 C32 14.07 32 7.14 32 0 C34.64 0 37.28 0 40 0 C40 16.83 40 33.66 40 51 C37.36 51 34.72 51 32 51 C32 43.08 32 35.16 32 27 C23.75 27 15.5 27 7 27 C7 34.92 7 42.84 7 51 C4.69 51 2.38 51 0 51 C0 34.17 0 17.34 0 0 Z " fill="#151616" transform="translate(295,436)"/>
<path d="M0 0 C0.68932617 0.34949707 1.37865234 0.69899414 2.08886719 1.05908203 C5.79921281 2.95274738 9.45937331 4.91844468 13.08984375 6.9609375 C21.2137434 11.49408803 28.18539343 14.93243679 37.6875 15.5 C37.3575 16.16 37.0275 16.82 36.6875 17.5 C31.61967518 17.64976523 26.55317375 17.75787149 21.48364258 17.82958984 C19.76401293 17.85952444 18.04453279 17.90028857 16.32543945 17.95263672 C5.62315954 18.27006404 -2.34567543 18.09994184 -11.3125 11.5 C-12.07433594 10.99098145 -12.83617187 10.48196289 -13.62109375 9.95751953 C-15.59825911 8.60045609 -16.96354047 7.48348753 -18.3125 5.5 C-18.83882959 2.26942529 -18.34061074 0.7466655 -17.3125 -2.5 C-12.33983687 -7.10431771 -5.04669882 -2.63650409 0 0 Z " fill="#67BF00" transform="translate(313.3125,392.5)"/>
<path d="M0 0 C13.2 0 26.4 0 40 0 C40 1.98 40 3.96 40 6 C34.72 6 29.44 6 24 6 C24 20.52 24 35.04 24 50 C21.69 50 19.38 50 17 50 C17 35.48 17 20.96 17 6 C11.39 6 5.78 6 0 6 C0 4.02 0 2.04 0 0 Z " fill="#151616" transform="translate(341,437)"/>
<path d="M0 0 C2.31 0 4.62 0 7 0 C7 14.52 7 29.04 7 44 C15.25 44 23.5 44 32 44 C32 46.31 32 48.62 32 51 C21.44 51 10.88 51 0 51 C0 34.17 0 17.34 0 0 Z " fill="#151616" transform="translate(182,436)"/>
<path d="M0 0 C2.31 0 4.62 0 7 0 C7 16.83 7 33.66 7 51 C4.69 51 2.38 51 0 51 C0 34.17 0 17.34 0 0 Z " fill="#151616" transform="translate(222,436)"/>
</svg>
